<?xml version="1.0" standalone="no"?>
<!DOCTYPE svg PUBLIC "-//W3C//DTD SVG 20010904//EN"
 "http://www.w3.org/TR/2001/REC-SVG-20010904/DTD/svg10.dtd">
<svg version="1.0" xmlns="http://www.w3.org/2000/svg"
 width="896.000000pt" height="1024.000000pt" viewBox="0 0 896.000000 1024.000000"
 preserveAspectRatio="xMidYMid meet">

<g transform="translate(0.000000,1024.000000) scale(0.100000,-0.100000)"
fill="#000000" stroke="none">
<path d="M37 10194 c-4 -4 -7 -290 -7 -636 l0 -628 4450 0 4450 0 -2 633 -3
632 -1890 3 c-1315 2 -1915 -1 -1974 -8 -252 -33 -461 -205 -536 -442 -14 -44
-25 -90 -25 -104 0 -46 -16 -24 -29 41 -37 185 -179 364 -355 446 -147 69 35
63 -2122 66 -1072 2 -1953 0 -1957 -3z"/>
<path d="M33 6263 c4 -2124 3 -2098 48 -2408 277 -1928 1797 -3464 3714 -3754
273 -41 346 -46 685 -46 339 0 412 5 685 46 717 109 1426 410 2005 852 953
728 1567 1791 1719 2979 37 281 41 534 41 2481 l0 1887 -4450 0 -4451 0 4
-2037z m1062 522 c198 -114 505 -291 683 -394 l322 -186 482 -835 c265 -459
561 -972 658 -1140 97 -168 248 -429 335 -580 211 -365 314 -544 453 -785 63
-110 137 -238 164 -284 26 -46 46 -86 44 -89 -3 -2 -69 33 -148 79 -286 166
-349 232 -546 574 -318 554 -487 842 -501 857 -9 9 -77 51 -151 93 -241 138
-337 226 -451 417 -31 51 -175 299 -319 550 l-264 458 -135 77 c-235 132 -309
190 -404 315 -47 63 -622 1048 -643 1103 -7 18 -6 18 27 -2 19 -11 196 -114
394 -228z m7185 231 c-8 -7 -330 -195 -715 -417 -385 -221 -797 -459 -915
-527 -118 -68 -282 -163 -365 -210 -204 -116 -282 -171 -364 -257 -79 -83 -90
-101 -541 -885 -364 -634 -735 -1270 -741 -1270 -3 0 -77 124 -164 275 l-157
274 47 83 c27 46 222 385 435 753 213 369 392 680 399 693 l12 23 -38 -19
c-110 -55 -731 -342 -740 -342 -11 0 -223 358 -223 376 0 5 52 27 115 48 63
22 120 43 125 46 7 4 -7 38 -35 86 -24 43 -45 84 -45 90 0 6 58 29 129 50 72
21 128 40 127 43 -2 3 -22 39 -45 79 -24 41 -40 77 -36 80 5 6 3712 939 3740
941 5 1 3 -5 -5 -13z m-5665 -1114 c419 -241 512 -296 566 -338 63 -48 155
-144 197 -207 16 -23 208 -352 427 -732 218 -379 483 -838 588 -1020 105 -181
203 -352 218 -379 l27 -49 15 24 c8 13 95 164 192 334 98 171 237 414 310 540
73 127 220 383 327 570 107 187 248 432 313 545 158 276 216 350 349 450 49
36 299 181 341 196 18 7 18 5 -4 -32 -30 -49 -613 -1060 -796 -1379 -76 -132
-170 -296 -210 -365 -40 -69 -276 -478 -525 -910 -249 -432 -457 -791 -462
-798 -8 -9 -44 46 -135 205 -69 120 -159 277 -200 348 -42 72 -109 186 -148
255 -80 138 -802 1387 -953 1650 -52 91 -212 368 -355 615 -143 248 -282 488
-309 534 -26 46 -48 88 -48 93 0 6 17 0 38 -12 20 -12 127 -74 237 -138z"/>
</g>
</svg>
